<?xml version="1.0" encoding="UTF-8" standalone="no"?>
<!-- Created with Inkscape (http://www.inkscape.org/) -->

<svg
   width="210mm"
   height="297mm"
   viewBox="0 0 210 297"
   version="1.1"
   id="svg1"
   inkscape:version="1.4.3 (fcd0343856, 2026-01-01)"
   sodipodi:docname="research and development layout.svg"
   xmlns:inkscape="http://www.inkscape.org/namespaces/inkscape"
   xmlns:sodipodi="http://sodipodi.sourceforge.net/DTD/sodipodi-0.dtd"
   xmlns="http://www.w3.org/2000/svg"
   xmlns:svg="http://www.w3.org/2000/svg">
  <sodipodi:namedview
     id="namedview1"
     pagecolor="#505050"
     bordercolor="#eeeeee"
     borderopacity="1"
     inkscape:showpageshadow="0"
     inkscape:pageopacity="0"
     inkscape:pagecheckerboard="0"
     inkscape:deskcolor="#505050"
     inkscape:document-units="mm"
     inkscape:zoom="4.6446409"
     inkscape:cx="236.18618"
     inkscape:cy="280.64603"
     inkscape:window-width="2560"
     inkscape:window-height="1371"
     inkscape:window-x="0"
     inkscape:window-y="0"
     inkscape:window-maximized="1"
     inkscape:current-layer="layer1" />
  <defs
     id="defs1">
    <marker
       style="overflow:visible"
       id="Triangle"
       refX="0"
       refY="0"
       orient="auto-start-reverse"
       inkscape:stockid="Triangle arrow"
       markerWidth="0.5"
       markerHeight="0.5"
       viewBox="0 0 1 1"
       inkscape:isstock="true"
       inkscape:collect="always"
       preserveAspectRatio="xMidYMid">
      <path
         transform="scale(0.5)"
         style="fill:context-stroke;fill-rule:evenodd;stroke:context-stroke;stroke-width:1pt"
         d="M 5.77,0 -2.88,5 V -5 Z"
         id="path135" />
    </marker>
    <rect
       x="462.5"
       y="253"
       width="134"
       height="23"
       id="rect31" />
    <marker
       style="overflow:visible"
       id="Triangle-4"
       refX="0"
       refY="0"
       orient="auto-start-reverse"
       inkscape:stockid="Triangle arrow"
       markerWidth="0.5"
       markerHeight="0.5"
       viewBox="0 0 1 1"
       inkscape:isstock="true"
       inkscape:collect="always"
       preserveAspectRatio="xMidYMid">
      <path
         transform="scale(0.5)"
         style="fill:context-stroke;fill-rule:evenodd;stroke:context-stroke;stroke-width:1pt"
         d="M 5.77,0 -2.88,5 V -5 Z"
         id="path135-4" />
    </marker>
    <rect
       x="462.5"
       y="253"
       width="82.204428"
       height="18.403806"
       id="rect31-1" />
    <rect
       x="462.5"
       y="253"
       width="212.66564"
       height="21.232234"
       id="rect31-1-1" />
    <marker
       style="overflow:visible"
       id="Triangle-1"
       refX="0"
       refY="0"
       orient="auto-start-reverse"
       inkscape:stockid="Triangle arrow"
       markerWidth="0.5"
       markerHeight="0.5"
       viewBox="0 0 1 1"
       inkscape:isstock="true"
       inkscape:collect="always"
       preserveAspectRatio="xMidYMid">
      <path
         transform="scale(0.5)"
         style="fill:context-stroke;fill-rule:evenodd;stroke:context-stroke;stroke-width:1pt"
         d="M 5.77,0 -2.88,5 V -5 Z"
         id="path135-8" />
    </marker>
    <marker
       style="overflow:visible"
       id="Triangle-1-8"
       refX="0"
       refY="0"
       orient="auto-start-reverse"
       inkscape:stockid="Triangle arrow"
       markerWidth="0.5"
       markerHeight="0.5"
       viewBox="0 0 1 1"
       inkscape:isstock="true"
       inkscape:collect="always"
       preserveAspectRatio="xMidYMid">
      <path
         transform="scale(0.5)"
         style="fill:context-stroke;fill-rule:evenodd;stroke:context-stroke;stroke-width:1pt"
         d="M 5.77,0 -2.88,5 V -5 Z"
         id="path135-8-3" />
    </marker>
    <rect
       x="462.5"
       y="253"
       width="212.66563"
       height="21.232233"
       id="rect31-1-1-2" />
    <marker
       style="overflow:visible"
       id="Triangle-1-8-6"
       refX="0"
       refY="0"
       orient="auto-start-reverse"
       inkscape:stockid="Triangle arrow"
       markerWidth="0.5"
       markerHeight="0.5"
       viewBox="0 0 1 1"
       inkscape:isstock="true"
       inkscape:collect="always"
       preserveAspectRatio="xMidYMid">
      <path
         transform="scale(0.5)"
         style="fill:context-stroke;fill-rule:evenodd;stroke:context-stroke;stroke-width:1pt"
         d="M 5.77,0 -2.88,5 V -5 Z"
         id="path135-8-3-9" />
    </marker>
  </defs>
  <g
     inkscape:label="Layer 1"
     inkscape:groupmode="layer"
     id="layer1">
    <path
       sodipodi:type="star"
       style="fill:none;fill-opacity:1;stroke:#000000;stroke-width:4;stroke-dasharray:none;stroke-opacity:1"
       id="path1"
       inkscape:flatsided="true"
       sodipodi:sides="12"
       sodipodi:cx="59.246777"
       sodipodi:cy="119.51505"
       sodipodi:r1="83.650879"
       sodipodi:r2="80.800545"
       sodipodi:arg1="0.75301208"
       sodipodi:arg2="1.0148115"
       inkscape:rounded="0"
       inkscape:randomized="0"
       d="M 120.28117,176.71883 83.50222,199.57218 40.224045,200.97428 2.0429955,180.54944 -20.810347,143.7705 -22.212448,100.49232 -1.7876152,62.311272 34.991333,39.457929 l 43.278175,-1.4021 38.181052,20.424832 22.85334,36.778949 1.4021,43.27817 z"
       transform="rotate(1.7189006,-1393.3807,1845.1859)" />
    <path
       sodipodi:type="star"
       style="fill:none;fill-opacity:1;stroke:#000000;stroke-width:4.81927244;stroke-dasharray:none;stroke-opacity:1"
       id="path1-5"
       inkscape:flatsided="true"
       sodipodi:sides="12"
       sodipodi:cx="59.246777"
       sodipodi:cy="119.51505"
       sodipodi:r1="83.650879"
       sodipodi:r2="80.800545"
       sodipodi:arg1="0.75301208"
       sodipodi:arg2="1.0148115"
       inkscape:rounded="0"
       inkscape:randomized="0"
       d="M 120.28117,176.71883 83.50222,199.57218 40.224045,200.97428 2.0429955,180.54944 -20.810347,143.7705 -22.212448,100.49232 -1.7876152,62.311272 34.991333,39.457929 l 43.278175,-1.4021 38.181052,20.424832 22.85334,36.778949 1.4021,43.27817 z"
       transform="matrix(0.82962732,0.02489668,-0.02489668,0.82962732,63.683024,63.286741)" />
    <path
       sodipodi:type="star"
       style="fill:none;fill-opacity:1;stroke:#000000;stroke-width:6.36631166;stroke-dasharray:none;stroke-opacity:1"
       id="path1-5-9"
       inkscape:flatsided="true"
       sodipodi:sides="12"
       sodipodi:cx="59.246777"
       sodipodi:cy="119.51505"
       sodipodi:r1="83.650879"
       sodipodi:r2="80.800545"
       sodipodi:arg1="0.75301208"
       sodipodi:arg2="1.0148115"
       inkscape:rounded="0"
       inkscape:randomized="0"
       d="M 120.28117,176.71883 83.50222,199.57218 40.224045,200.97428 2.0429955,180.54944 -20.810347,143.7705 -22.212448,100.49232 -1.7876152,62.311272 34.991333,39.457929 l 43.278175,-1.4021 38.181052,20.424832 22.85334,36.778949 1.4021,43.27817 z"
       transform="matrix(0.62802456,0.01884669,-0.01884669,0.62802456,74.497052,87.684307)" />
    <path
       sodipodi:type="star"
       style="fill:none;fill-opacity:1;stroke:#000000;stroke-width:10.49322233;stroke-dasharray:none;stroke-opacity:1"
       id="path1-5-9-2"
       inkscape:flatsided="true"
       sodipodi:sides="12"
       sodipodi:cx="59.246777"
       sodipodi:cy="119.51505"
       sodipodi:r1="83.650879"
       sodipodi:r2="80.800545"
       sodipodi:arg1="0.75301208"
       sodipodi:arg2="1.0148115"
       inkscape:rounded="0"
       inkscape:randomized="0"
       d="M 120.28117,176.71883 83.50222,199.57218 40.224045,200.97428 2.0429955,180.54944 -20.810347,143.7705 -22.212448,100.49232 -1.7876152,62.311272 34.991333,39.457929 l 43.278175,-1.4021 38.181052,20.424832 22.85334,36.778949 1.4021,43.27817 z"
       transform="matrix(0.38102691,0.01143442,-0.01143442,0.38102691,87.873805,117.52273)" />
    <path
       sodipodi:type="star"
       style="fill:#000000;fill-opacity:1;stroke:none;stroke-width:10.4932;stroke-dasharray:none;stroke-opacity:1"
       id="path1-5-9-2-6"
       inkscape:flatsided="true"
       sodipodi:sides="12"
       sodipodi:cx="59.246777"
       sodipodi:cy="119.51505"
       sodipodi:r1="83.650879"
       sodipodi:r2="80.800545"
       sodipodi:arg1="0.75301208"
       sodipodi:arg2="1.0148115"
       inkscape:rounded="0"
       inkscape:randomized="0"
       d="M 120.28117,176.71883 83.50222,199.57218 40.224045,200.97428 2.0429955,180.54944 -20.810347,143.7705 -22.212448,100.49232 -1.7876152,62.311272 34.991333,39.457929 l 43.278175,-1.4021 38.181052,20.424832 22.85334,36.778949 1.4021,43.27817 z"
       transform="matrix(0.11425051,0.0034286,-0.0034286,0.11425051,102.4031,149.50427)" />
    <path
       sodipodi:type="star"
       style="fill:none;fill-opacity:1;stroke:#000000;stroke-width:34.36397831;stroke-dasharray:none;stroke-opacity:1"
       id="path1-5-9-2-4"
       inkscape:flatsided="true"
       sodipodi:sides="12"
       sodipodi:cx="59.246777"
       sodipodi:cy="119.51505"
       sodipodi:r1="83.650879"
       sodipodi:r2="80.800545"
       sodipodi:arg1="0.75301208"
       sodipodi:arg2="1.0148115"
       inkscape:rounded="0"
       inkscape:randomized="0"
       d="M 120.28117,176.71883 83.50222,199.57218 40.224045,200.97428 2.0429955,180.54944 -20.810347,143.7705 -22.212448,100.49232 -1.7876152,62.311272 34.991333,39.457929 l 43.278175,-1.4021 38.181052,20.424832 22.85334,36.778949 1.4021,43.27817 z"
       transform="matrix(0.11634858,0.00349156,-0.00349156,0.11634858,102.31735,149.73972)" />
    <path
       sodipodi:type="star"
       style="fill:#000000;fill-opacity:1;stroke:none;stroke-width:34.364;stroke-dasharray:none;stroke-opacity:1"
       id="path1-5-9-2-4-0"
       inkscape:flatsided="true"
       sodipodi:sides="12"
       sodipodi:cx="59.246777"
       sodipodi:cy="119.51505"
       sodipodi:r1="83.650879"
       sodipodi:r2="80.800545"
       sodipodi:arg1="0.75301208"
       sodipodi:arg2="1.0148115"
       inkscape:rounded="0"
       inkscape:randomized="0"
       d="M 120.28117,176.71883 83.50222,199.57218 40.224045,200.97428 2.0429955,180.54944 -20.810347,143.7705 -22.212448,100.49232 -1.7876152,62.311272 34.991333,39.457929 l 43.278175,-1.4021 38.181052,20.424832 22.85334,36.778949 1.4021,43.27817 z"
       transform="matrix(0.01622566,4.8692485e-4,-4.8692485e-4,0.01622566,107.98233,161.87147)" />
    <path
       style="fill:none;fill-opacity:1;stroke:#000000;stroke-width:4;stroke-dasharray:none;stroke-opacity:1"
       d="m 169.38095,104.73449 -37.71202,36.80914"
       id="path3"
       sodipodi:nodetypes="cc" />
    <path
       style="fill:none;fill-opacity:1;stroke:#000000;stroke-width:4;stroke-dasharray:none;stroke-opacity:1"
       d="m 176.24846,145.97998 -16.43897,4.00303"
       id="path4-4"
       sodipodi:nodetypes="cc" />
    <path
       style="fill:none;fill-opacity:1;stroke:#000000;stroke-width:4;stroke-dasharray:none;stroke-opacity:1"
       d="M 191.23073,185.81343 139.78802,172.02984"
       id="path5"
       sodipodi:nodetypes="cc" />
    <path
       style="fill:none;fill-opacity:1;stroke:#000000;stroke-width:4;stroke-dasharray:none;stroke-opacity:1"
       d="M 131.436,185.96109 109.06833,163.78307"
       id="path6"
       sodipodi:nodetypes="cc" />
    <path
       style="fill:none;fill-opacity:1;stroke:#000000;stroke-width:4;stroke-dasharray:none;stroke-opacity:1"
       d="M 160.08914,212.55553 146.75031,199.58692"
       id="path6-0"
       sodipodi:nodetypes="cc" />
    <path
       style="fill:none;fill-opacity:1;stroke:#000000;stroke-width:4;stroke-dasharray:none;stroke-opacity:1"
       d="M 132.18215,244.50086 118.05931,194.30027"
       id="path7"
       sodipodi:nodetypes="cc" />
    <path
       style="fill:none;fill-opacity:1;stroke:#000000;stroke-width:4;stroke-dasharray:none;stroke-opacity:1"
       d="M 92.142834,231.13522 96.40123,214.37515"
       id="path8-8"
       sodipodi:nodetypes="cc" />
    <path
       style="fill:none;fill-opacity:1;stroke:#000000;stroke-width:4;stroke-dasharray:none;stroke-opacity:1"
       d="M 51.103209,223.19281 86.617326,186.58616"
       id="path9"
       sodipodi:nodetypes="cc" />
    <path
       style="fill:none;fill-opacity:1;stroke:#000000;stroke-width:4;stroke-dasharray:none;stroke-opacity:1"
       d="m 78.338131,172.02323 30.549629,-8.24016 m -24.464211,14.32558"
       id="path10"
       sodipodi:nodetypes="cc" />
    <path
       style="fill:none;fill-opacity:1;stroke:#000000;stroke-width:4;stroke-dasharray:none;stroke-opacity:1"
       d="M 43.336878,181.61485 59.801524,177.1668"
       id="path10-9"
       sodipodi:nodetypes="cc" />
    <path
       style="fill:none;fill-opacity:1;stroke:#000000;stroke-width:4;stroke-dasharray:none;stroke-opacity:1"
       d="m 29.795157,142.11387 48.839851,13.12325"
       id="path11"
       sodipodi:nodetypes="cc" />
    <path
       style="fill:none;fill-opacity:1;stroke:#000000;stroke-width:4;stroke-dasharray:none;stroke-opacity:1"
       d="M 60.720999,115.20116 73.257408,128.9578"
       id="path12-1"
       sodipodi:nodetypes="cc" />
    <path
       style="fill:none;fill-opacity:1;stroke:#000000;stroke-width:4;stroke-dasharray:none;stroke-opacity:1"
       d="M 88.482587,83.245864 100.99307,133.07246"
       id="path13"
       sodipodi:nodetypes="cc" />
    <path
       style="fill:#000000;fill-opacity:1;stroke:#000000;stroke-width:4;stroke-dasharray:none;stroke-opacity:1"
       d="m 117.21668,133.56062 -8.29966,30.38951"
       id="path14"
       sodipodi:nodetypes="cc" />
    <path
       style="fill:#000000;fill-opacity:1;stroke:#000000;stroke-width:4;stroke-dasharray:none;stroke-opacity:1"
       d="m 127.48837,97.188663 -4.50755,16.846257"
       id="path14-7"
       sodipodi:nodetypes="cc" />
    <path
       style="fill:#000000;fill-opacity:1;stroke:#1a1a1a;stroke-width:2;stroke-dasharray:none;stroke-opacity:1"
       d="m 81.237289,161.19274 0.0057,1.90516"
       id="path15" />
    <path
       style="fill:#000000;fill-opacity:1;stroke:#1a1a1a;stroke-width:2;stroke-dasharray:none;stroke-opacity:1"
       d="m 86.161733,179.72841 0.953158,1.64958"
       id="path15-6" />
    <path
       style="fill:#000000;fill-opacity:1;stroke:#1a1a1a;stroke-width:2;stroke-dasharray:none;stroke-opacity:1"
       d="m 119.89644,189.65233 1.64632,-0.95876"
       id="path15-6-9" />
    <path
       style="fill:#1a1a1a;fill-opacity:1;stroke:#1a1a1a;stroke-width:2;stroke-dasharray:none;stroke-opacity:1"
       d="m 105.92427,135.91214 1.90513,-0.0133"
       id="path15-9" />
    <path
       style="fill:#1a1a1a;fill-opacity:1;stroke:#1a1a1a;stroke-width:2;stroke-dasharray:none;stroke-opacity:1"
       d="m 109.89665,116.0571 1.90513,-0.0133"
       id="path15-9-71"
       sodipodi:nodetypes="cc" />
    <path
       style="fill:#1a1a1a;fill-opacity:1;stroke:#1a1a1a;stroke-width:2;stroke-dasharray:none;stroke-opacity:1"
       d="m 97.108048,86.085427 1.90513,-0.0133"
       id="path15-9-71-8"
       sodipodi:nodetypes="cc" />
    <path
       style="fill:#1a1a1a;fill-opacity:1;stroke:#1a1a1a;stroke-width:2;stroke-dasharray:none;stroke-opacity:1"
       d="m 94.037176,80.186883 1.90513,-0.0133"
       id="path15-9-71-8-5"
       sodipodi:nodetypes="cc" />
    <path
       style="fill:#1a1a1a;fill-opacity:1;stroke:#1a1a1a;stroke-width:2;stroke-dasharray:none;stroke-opacity:1"
       d="m 109.2799,80.123692 1.90513,-0.0133"
       id="path15-9-71-8-5-9"
       sodipodi:nodetypes="cc" />
    <path
       style="fill:#1a1a1a;fill-opacity:1;stroke:#1a1a1a;stroke-width:2;stroke-dasharray:none;stroke-opacity:1"
       d="m 123.4351,80.065815 1.90513,-0.0133"
       id="path15-9-71-8-5-0"
       sodipodi:nodetypes="cc" />
    <path
       style="fill:#1a1a1a;fill-opacity:1;stroke:#1a1a1a;stroke-width:2;stroke-dasharray:none;stroke-opacity:1"
       d="m 111.29352,86.037082 1.90513,-0.0133"
       id="path15-9-71-9"
       sodipodi:nodetypes="cc" />
    <path
       style="fill:#1a1a1a;fill-opacity:1;stroke:#1a1a1a;stroke-width:2;stroke-dasharray:none;stroke-opacity:1"
       d="m 122.99589,86.015453 1.90513,-0.0133"
       id="path15-9-71-0"
       sodipodi:nodetypes="cc" />
    <path
       style="fill:#1a1a1a;fill-opacity:1;stroke:#1a1a1a;stroke-width:2;stroke-dasharray:none;stroke-opacity:1"
       d="m 132.69287,122.04125 1.64081,0.96822"
       id="path15-9-71-7"
       sodipodi:nodetypes="cc" />
    <path
       style="fill:#1a1a1a;fill-opacity:1;stroke:#1a1a1a;stroke-width:2;stroke-dasharray:none;stroke-opacity:1"
       d="m 139.71237,137.74537 1.34347,-1.35082"
       id="path15-9-71-7-3"
       sodipodi:nodetypes="cc" />
    <path
       style="fill:#1a1a1a;fill-opacity:1;stroke:#1a1a1a;stroke-width:2;stroke-dasharray:none;stroke-opacity:1"
       d="m 125.83337,141.18395 1.63873,0.97172"
       id="path15-9-7" />
    <path
       style="fill:#1a1a1a;fill-opacity:1;stroke:#1a1a1a;stroke-width:2;stroke-dasharray:none;stroke-opacity:1"
       d="m 133.26988,175.69978 1.63873,0.97172"
       id="path15-9-7-2" />
    <path
       style="fill:#1a1a1a;fill-opacity:1;stroke:none;stroke-width:2;stroke-dasharray:none;stroke-opacity:1"
       d="m 111.37014,136.35138 c -1.1286,0 -8.938,0.0292 -8.938,0.0292 l -9.327739,5.55005 -0.685196,2.48107 6.435975,6.91976 3.3738,0.93988 c 0,0 2.82152,-1.35434 3.09239,-1.44462 0.27086,-0.0903 4.01783,-0.0451 4.01783,-0.0451 l 3.45232,-12.92183 z"
       id="path16"
       sodipodi:nodetypes="ccccccsccc" />
    <path
       style="fill:#1a1a1a;fill-opacity:1;stroke:none;stroke-width:2;stroke-dasharray:none;stroke-opacity:1"
       d="m 82.166594,156.73581 -0.06384,9.64037 1.404556,0.95765 12.513329,-3.12833 -0.319217,-3.76677 2.426051,-3.99021 -0.510748,-2.68143 -7.278156,-7.56546 -2.473078,0.63711 z"
       id="path17"
       sodipodi:nodetypes="cccccccccc" />
    <path
       sodipodi:type="star"
       style="fill:#ff7272;fill-opacity:1;stroke:none;stroke-width:2;stroke-dasharray:none;stroke-opacity:1"
       id="path18"
       inkscape:flatsided="false"
       sodipodi:sides="6"
       sodipodi:cx="89.636284"
       sodipodi:cy="127.3678"
       sodipodi:r1="3.4528656"
       sodipodi:r2="2.0717194"
       sodipodi:arg1="0.33929261"
       sodipodi:arg2="0.86289139"
       inkscape:rounded="0"
       inkscape:randomized="0"
       d="m 92.892303,128.51698 -1.908897,0.42476 -0.714334,1.82044 -1.322298,-1.44077 -1.933721,0.29159 0.586599,-1.86553 -1.219387,-1.52886 1.908897,-0.42475 0.714334,-1.82045 1.322298,1.44078 1.933721,-0.2916 -0.586599,1.86554 z"
       inkscape:transform-center-x="0.0032229036"
       inkscape:transform-center-y="0.0070678679"
       transform="matrix(0.1202056,0,0,0.1202056,96.15476,120.20963)" />
    <path
       sodipodi:type="star"
       style="fill:#ff7272;fill-opacity:1;stroke:none;stroke-width:2;stroke-dasharray:none;stroke-opacity:1"
       id="path18-5"
       inkscape:flatsided="false"
       sodipodi:sides="6"
       sodipodi:cx="89.636284"
       sodipodi:cy="127.3678"
       sodipodi:r1="3.4528656"
       sodipodi:r2="2.0717194"
       sodipodi:arg1="0.33929261"
       sodipodi:arg2="0.86289139"
       inkscape:rounded="0"
       inkscape:randomized="0"
       d="m 92.892303,128.51698 -1.908897,0.42476 -0.714334,1.82044 -1.322298,-1.44077 -1.933721,0.29159 0.586599,-1.86553 -1.219387,-1.52886 1.908897,-0.42475 0.714334,-1.82045 1.322298,1.44078 1.933721,-0.2916 -0.586599,1.86554 z"
       inkscape:transform-center-x="0.0032229036"
       inkscape:transform-center-y="0.0070678679"
       transform="matrix(0.1202056,0,0,0.1202056,87.538434,68.984702)" />
    <path
       style="fill:#1a1a1a;fill-opacity:1;stroke:none;stroke-width:2;stroke-dasharray:none;stroke-opacity:1"
       d="m 129.2081,143.96473 c -0.46772,0 -7.95125,-4.34981 -7.95125,-4.34981 l -2.22168,0.79513 -3.41437,12.34785 2.52569,1.21607 2.47893,4.25627 2.15152,0.60804 10.85114,-5.33203 0.14032,-2.05797 z"
       id="path19"
       sodipodi:nodetypes="cccccccccc" />
    <path
       style="fill:#1a1a1a;fill-opacity:1;stroke:none;stroke-width:2;stroke-dasharray:none;stroke-opacity:1"
       d="m 136.107,171.20951 c -0.23386,0.28063 -4.09256,6.66504 -4.09256,6.66504 l -2.15152,0.39756 -9.28427,-8.30206 1.63702,-2.71278 0.0113,-5.23046 0.72967,-1.37244 11.53668,-5.20707 c 0,0 2.0112,0.65481 2.0112,0.77174 0,0.11693 -0.39757,14.99047 -0.39757,14.99047 z"
       id="path21"
       sodipodi:nodetypes="ccccccccsc" />
    <path
       style="fill:#1a1a1a;fill-opacity:1;stroke:none;stroke-width:2;stroke-dasharray:none;stroke-opacity:1"
       d="m 89.561457,183.98463 c -0.23151,-0.46302 -5.060156,-8.89661 -5.060156,-8.89661 l 0.595313,-1.52136 12.501562,-3.40651 1.752864,2.84427 4.26641,2.48047 0.39687,1.55443 -4.630207,11.01328 -2.083593,0.52917 z"
       id="path22" />
    <path
       style="fill:#1a1a1a;fill-opacity:1;stroke:none;stroke-width:2;stroke-dasharray:none;stroke-opacity:1"
       d="m 116.6151,190.73151 8.06979,-4.92787 0.0992,-1.62057 -9.26041,-9.22734 c 0,0 -2.57969,1.35599 -2.97657,1.5875 -0.39687,0.23151 -5.22552,-0.0992 -5.45703,0.0331 -0.23151,0.13229 -1.0914,0.95911 -1.0914,0.95911 l -4.23334,11.34401 1.12448,1.95131 z"
       id="path23" />
    <path
       style="fill:#1a1a1a;fill-opacity:1;stroke:none;stroke-width:2;stroke-dasharray:none;stroke-opacity:1"
       d="m 118.38117,116.66842 -16.42224,-0.0504 -1.25937,1.30975 2.66987,10.52837 1.46087,1.30975 10.83062,-0.25188 2.24169,-1.56161 2.29206,-9.57125 z"
       id="path24"
       sodipodi:nodetypes="ccccccccc" />
    <path
       style="fill:#1a1a1a;fill-opacity:1;stroke:none;stroke-width:2;stroke-dasharray:none;stroke-opacity:1"
       d="m 138.84862,126.59519 c -0.89051,-0.21372 -14.17694,-8.26395 -14.17694,-8.26395 l -2.35095,0.81927 -2.35096,9.43943 0.85489,2.17283 9.36819,5.41432 c 0,0 2.63591,-0.67679 2.7784,-0.85489 0.14248,-0.1781 6.19796,-6.66103 6.19796,-6.66103 z"
       id="path25"
       sodipodi:nodetypes="ccccccscc" />
    <path
       style="fill:#1a1a1a;fill-opacity:1;stroke:none;stroke-width:2;stroke-dasharray:none;stroke-opacity:1"
       d="m 94.127117,86.86054 h 8.388623 l 1.24672,1.157667 0.0712,4.595041 c 0,0 -1.19328,1.264526 -1.28233,1.264526 -0.0891,0 -7.177529,-0.05343 -7.177529,-0.05343 L 94.233977,92.559818 93.0585,88.196308 Z"
       id="path26"
       sodipodi:nodetypes="ccccscccc" />
    <path
       style="fill:#1a1a1a;fill-opacity:1;stroke:none;stroke-width:1.94453;stroke-dasharray:none;stroke-opacity:1"
       d="m 107.05358,86.985211 8.85578,-0.03562 1.2122,1.335768 0.0674,3.918254 -1.3048,1.407008 -8.9147,-0.05343 -1.16168,-1.424819 -0.0505,-3.864822 z"
       id="path27"
       sodipodi:nodetypes="ccccccccc" />
    <path
       style="fill:#1a1a1a;fill-opacity:1;stroke:none;stroke-width:2;stroke-dasharray:none;stroke-opacity:1"
       d="m 127.23199,86.902686 -7.14445,0.08185 -1.43825,1.496707 0.11693,3.730083 1.22777,1.485016 6.06357,-0.03709 1.52009,-0.958829 1.08089,-4.312728 z"
       id="path28"
       sodipodi:nodetypes="ccccccccc" />
    <path
       style="fill:#1a1a1a;fill-opacity:1;stroke:none;stroke-width:2;stroke-dasharray:none;stroke-opacity:1"
       d="m 90.255989,79.32539 9.161197,0.01654 1.355994,-1.058333 -0.0331,-5.291667 -1.504814,-1.438672 -8.350912,0.01654 -1.604037,1.273307 -0.01654,5.27513 z"
       id="path29"
       sodipodi:nodetypes="ccccccccc" />
    <path
       style="fill:#1a1a1a;fill-opacity:1;stroke:none;stroke-width:2;stroke-dasharray:none;stroke-opacity:1"
       d="m 90.087097,72.344543 c -0.188431,-0.31405 -0.06363,-0.627022 -0.336214,-0.945043 -0.03658,-0.04268 -0.220135,-0.292043 -0.256123,-0.335223 -0.102757,-0.123307 -0.08296,-0.592231 -0.148887,-0.746065 -0.02532,-0.05909 -0.02421,-0.1269 -0.04677,-0.18709 -0.130342,-0.34758 -0.186945,-0.569843 -0.420284,-0.849846 -0.101092,-0.121311 -0.152392,-0.274436 -0.280633,-0.374179 -0.387612,-0.301477 -0.538511,-0.510874 -0.993909,-0.713275 -0.737994,-0.327996 0.274545,0.113887 -0.327406,-0.187087 -0.07476,-0.03738 -0.257471,-0.07357 -0.327403,-0.09355 -0.316595,-0.09046 -0.619731,-0.2413 -0.935445,-0.327404 -0.09149,-0.02495 -0.18914,-0.02183 -0.280633,-0.04677 -0.266457,-0.07267 -0.533046,-0.193273 -0.795126,-0.280633 -0.233204,-0.07773 -0.191381,-0.02447 -0.467722,-0.09355 -0.440497,-0.110122 -0.887037,-0.215707 -1.309622,-0.374176 -0.143952,-0.05398 -0.272777,-0.04909 -0.420949,-0.09354 C 82.226049,66.542934 82.006334,66.332744 81.570669,66.0423 81.36097,65.902503 81.132228,65.838537 80.915857,65.714897 80.655446,65.56609 80.488211,65.296162 80.261047,65.106858 80.01241,64.89966 79.72733,64.697347 79.512692,64.452049 c -0.18851,-0.215443 -0.27259,-0.464212 -0.42095,-0.701583 -0.07108,-0.113731 -0.139025,-0.232571 -0.233859,-0.327406 -0.03975,-0.03975 -0.100569,-0.0538 -0.140317,-0.09354 -0.215966,-0.215966 -0.34226,-0.529349 -0.561266,-0.748355 -0.185372,-0.185373 -0.241297,-0.175544 -0.374179,-0.327406 -0.18012,-0.205854 -0.382863,-0.491049 -0.608036,-0.65481 -0.469421,-0.341397 -0.09753,0.05293 -0.514496,-0.280633 -0.607171,-0.485738 0.168064,0.01982 -0.514493,-0.467722 -0.28013,-0.200094 -0.626149,-0.40662 -0.935442,-0.561266 -0.0751,-0.03755 -0.163028,-0.04847 -0.233862,-0.09354 -0.10273,-0.06538 -0.182155,-0.162242 -0.280633,-0.233862 -0.217491,-0.158176 -0.472448,-0.279943 -0.701583,-0.42095 -0.298384,-0.18362 -0.583308,-0.389498 -0.888669,-0.561266 -0.370493,-0.208401 -0.778163,-0.351517 -1.169305,-0.514492 -0.537271,-0.223864 -1.420609,-0.225579 -2.011204,-0.327406 -0.376653,-0.06494 -0.742217,-0.195829 -1.122531,-0.23386 -0.07757,-0.0078 -0.156509,0.0097 -0.23386,0 -0.541782,-0.06772 -1.107547,0.118596 -1.648721,0.05847 -0.323199,-0.03591 -0.656275,-0.04677 -0.982215,-0.04677 -0.205272,0 -0.52863,-0.03662 -0.748355,0 -0.293426,0.0489 -0.589572,0.145486 -0.88867,0.175397 -0.108595,0.01085 -0.219368,-0.01543 -0.327406,0 -0.247917,0.03541 -0.483422,-0.34604 -0.736662,-0.37418 -0.601507,-0.06683 -1.146114,-0.359875 -1.683798,-0.608036 -0.25255,-0.116562 -0.530542,-0.239443 -0.748355,-0.420952 -0.291762,-0.243134 -0.445879,-0.621917 -0.748353,-0.841899 -0.101656,-0.07393 -0.222822,-0.117364 -0.327406,-0.187087 -0.252323,-0.168217 0.03221,-0.01455 -0.140317,-0.187089 -0.03975,-0.03975 -0.100568,-0.0538 -0.140316,-0.09354 -0.163888,-0.163888 -0.303834,-0.350607 -0.467723,-0.514495 -0.515511,-0.515512 -0.969473,-1.064729 -1.356391,-1.683798 -0.02336,-0.138663 -0.166317,-0.179316 -0.23386,-0.280633 -0.09046,-0.135686 -0.116676,-0.28012 -0.18709,-0.42095 -0.05028,-0.100557 -0.13681,-0.180075 -0.187089,-0.280632 -0.145942,-0.291884 -0.251857,-0.606851 -0.42095,-0.888672 -0.04011,-0.06685 -0.101639,-0.119404 -0.140316,-0.187087 -0.06176,-0.108085 -0.09114,-0.259443 -0.140317,-0.374179 -0.04677,-0.109133 -0.07923,-0.225589 -0.140316,-0.327404 -0.114213,-0.190354 -0.07697,0.0029 -0.140317,-0.187089 -0.02032,-0.06098 -0.02289,-0.127405 -0.04677,-0.18709 -0.08811,-0.220289 -0.265832,-0.438123 -0.374176,-0.654809 -0.04339,-0.08685 -0.01802,-0.129593 -0.04677,-0.18709 -0.05626,-0.112514 -0.179689,-0.219064 -0.23386,-0.327403 -0.04276,-0.08552 -0.0056,-0.104799 -0.04677,-0.187089 -0.16727,-0.334542 -0.441338,-0.622435 -0.561266,-0.982216 -0.05545,-0.166357 -0.07878,-0.350395 -0.140316,-0.514493 -0.0714,-0.190396 -0.158282,-0.372321 -0.23386,-0.561266 -0.03397,-0.08493 -0.02988,-0.243506 -0.04677,-0.327406 -0.0099,-0.04894 0.17625,-0.348935 0.233863,-0.420949 0.09056,-0.113202 0.161266,-0.237879 0.280633,-0.327406 0.188701,-0.141526 0.396481,-0.221628 0.608037,-0.327406 0.100557,-0.05028 0.176249,-0.145333 0.280632,-0.187087 0.05888,-0.02355 0.523338,-0.06574 0.561266,-0.04677 0.03118,0.01558 0.01889,0.07263 0.04677,0.09354 0.275453,0.206589 0.520362,0.385878 0.841899,0.514495 0.312082,0.124831 0.372626,0.603382 0.467723,0.888672 0.110905,0.332719 0.267631,0.628806 0.420949,0.935442 0.125534,0.251066 0.332912,0.458925 0.467723,0.701583 0.196241,0.353234 0.304342,0.75493 0.467719,1.122532 0.0708,0.159287 0.165198,0.307506 0.233863,0.467722 0.07239,0.168907 0.103915,0.348147 0.187087,0.514493 0.08131,0.162623 0.179779,0.316442 0.280633,0.467722 0.02447,0.03669 0.07086,0.05573 0.09355,0.09354 0.104397,0.173995 0.1797,0.384635 0.280633,0.561266 0.149593,0.261789 0.334909,0.50891 0.514493,0.748355 0.09231,0.123071 0.137279,0.305051 0.23386,0.42095 0.03599,0.04318 0.100568,0.0538 0.140316,0.09354 0.0871,0.0871 0.201237,0.228161 0.280633,0.327406 0.14088,0.176099 0.280657,0.380876 0.467723,0.514493 0.05674,0.04053 0.129074,0.05487 0.187089,0.09355 0.212077,0.141385 0.370068,0.393967 0.561266,0.561266 0.120719,0.105629 1.137906,0.269675 1.251156,0.292324 0.281151,0.05623 0.56638,0.07688 0.841899,0.187089 0.198805,0.07952 0.395504,0.222671 0.608036,0.280633 0.231823,0.06322 0.469191,0.06035 0.701582,0.09354 0.516171,0.07374 1.020546,0.152228 1.543482,0.187089 0.303456,0.02024 0.07491,0.0037 0.327406,-0.04677 0.113789,-0.02275 0.261503,0.0094 0.374179,0 0.34322,-0.0286 0.686935,-0.0533 1.028985,-0.09354 0.04897,-0.0058 0.09139,-0.04066 0.140317,-0.04677 0.317701,-0.03971 0.581858,0.06287 0.888672,0.09355 0.231521,0.02315 0.469858,-0.02106 0.701582,0 0.263374,0.02394 0.53304,0.09999 0.795126,0.140316 0.247848,0.03813 0.503857,0.05593 0.748355,0.09354 0.284137,0.04371 0.571697,0.271026 0.853592,0.327406 0.27898,0.05579 0.559594,0.105026 0.841899,0.140317 0.260699,0.03259 0.440208,0.289572 0.701585,0.315712 0.230984,0.0231 0.39842,0.108481 0.608036,0.187086 0.709612,0.266105 -0.237966,-0.132603 0.327406,0.09355 0.105799,0.04232 0.217644,0.112877 0.327406,0.140317 0.111988,0.028 0.215545,0.03762 0.327403,0.09354 0.14868,0.07434 0.350319,0.16323 0.467723,0.280633 0.148259,0.14826 0.253111,0.333452 0.420949,0.467723 0.149389,0.119512 0.04814,-0.04494 0.18709,0.140316 0.219543,0.292725 -0.210617,-0.175561 0.140316,0.23386 0.190633,0.222406 0.433996,0.329211 0.608037,0.561266 0.106576,0.142103 0.171084,0.326874 0.280635,0.467723 0.232143,0.298471 0.600924,0.459187 0.841899,0.748355 0.153554,0.184264 0.354309,0.494625 0.514493,0.654809 0.278402,0.278403 0.641649,0.444514 0.935442,0.701583 0.258988,0.226613 0.441055,0.525044 0.701583,0.748355 0.08536,0.07316 0.194265,0.115115 0.280633,0.187087 0.126296,0.105246 0.216942,0.260019 0.374179,0.327406 0.05908,0.02532 0.129592,0.01802 0.187086,0.04677 0.124717,0.06236 0.20269,0.171503 0.327406,0.23386 0.07509,0.03755 0.155909,0.06236 0.23386,0.09355 0.109136,0.07795 0.209069,0.170746 0.327406,0.23386 0.117536,0.06268 0.25291,0.0852 0.374177,0.140316 0.169074,0.07685 0.272793,0.231537 0.420952,0.327406 0.211061,0.136568 0.427836,0.266095 0.654809,0.374177 0.15983,0.07611 0.399024,0.105968 0.561266,0.187089 0.09115,0.04557 0.190574,0.135626 0.280633,0.187087 0.283422,0.161957 0.614476,0.249579 0.888672,0.42095 0.435277,0.27205 -0.118645,0.01085 0.514493,0.327406 0.07509,0.03755 0.160964,0.05189 0.23386,0.09354 0.161689,0.09239 0.308702,0.268166 0.467722,0.374179 0.22542,0.150278 0.477605,0.271632 0.701583,0.42095 0.126735,0.08449 0.173804,0.231259 0.280633,0.327403 0.250147,0.225134 0.592957,0.48583 0.888671,0.654812 0.04281,0.02447 0.102884,0.01468 0.140317,0.04677 0.07579,0.06497 0.112474,0.16754 0.187089,0.233863 0.161883,0.143896 0.367538,0.230542 0.561266,0.327403 0.106199,0.0531 0.243446,0.05636 0.327404,0.140317 0.01103,0.01103 -0.01103,0.03575 0,0.04677 0.03975,0.03975 0.0983,0.0562 0.140316,0.09354 0.149154,0.13258 0.303377,0.30312 0.42095,0.467723 0.08205,0.114871 0.143801,0.261604 0.233862,0.374179 0.142542,0.178178 0.318889,0.340857 0.46772,0.514493 0.02987,0.03485 0.200057,0.166248 0.233863,0.233859 0.08764,0.175282 0.289739,0.606809 0.327403,0.795129 0.05046,0.252301 0.0579,0.547862 0.140316,0.795126 0.007,0.02093 0.03691,0.02705 0.04677,0.04677 0.02045,0.04089 -0.0099,0.147592 0,0.187087 0.03133,0.125309 0.06104,0.244144 0.09354,0.374179 0.01376,0.05504 -0.02484,0.137411 0,0.187087 0.04497,0.08993 0.08891,0.191727 0,0.280633"
       id="path30"
       sodipodi:nodetypes="cssscsssssscsssssssssscssssssssssssccssssssssssscscssssssssccsscsssssssssssssssssscssssssssssscsscccssssssssssssssssssssssssscssssssssssssssssscsssssssscssc" />
    <path
       style="fill:#1a1a1a;fill-opacity:1;stroke:none;stroke-width:2;stroke-dasharray:none;stroke-opacity:1"
       d="m 57.943749,46.963541 c 0.79375,-0.79375 12.170833,-13.096874 12.170833,-13.096874 l 1.322917,-13.758334 c 0,0 -1.719792,-22.0927079 -2.38125,-22.0927079 -0.661459,0 -9.128125,-9.7895831 -10.054167,-9.7895831 -0.926041,0 -19.579166,-7.011458 -19.976041,-6.482291 -0.396875,0.529166 -17.859375,2.513541 -17.859375,2.513541 L 2.6458333,-2.6458333 -5.5562499,18.785417 1.4552083,45.376041 25.135416,55.5625 45.640624,54.239583 Z"
       id="path31" />
    <text
       xml:space="preserve"
       transform="matrix(0.26458333,0,0,0.26458333,-18.123958,5.159375)"
       id="text31"
       style="writing-mode:lr-tb;direction:ltr;white-space:pre;shape-inside:url(#rect31);display:inline;fill:#ffffff;fill-opacity:1;stroke:none;stroke-width:7.55906;stroke-dasharray:none;stroke-opacity:1"><tspan
         x="462.5"
         y="263.61719"
         id="tspan3">Lodgings, 6 x 12 = 72</tspan></text>
    <text
       xml:space="preserve"
       transform="matrix(0.26458333,0,0,0.26458333,-43.239445,-13.771865)"
       id="text31-9"
       style="writing-mode:lr-tb;direction:ltr;white-space:pre;shape-inside:url(#rect31-1);display:inline;fill:#ffffff;fill-opacity:1;stroke:none;stroke-width:7.55906;stroke-dasharray:none;stroke-opacity:1"><tspan
         x="462.5"
         y="263.61719"
         id="tspan4">Secret path</tspan></text>
    <path
       style="fill:#ffffff;fill-opacity:1;stroke:#ffffff;stroke-width:0.5;stroke-dasharray:none;stroke-opacity:1;marker-end:url(#Triangle);stroke-miterlimit:1"
       d="m 103.21489,74.517578 c -0.39687,0.06615 -4.894785,1.058333 -4.894785,1.058333"
       id="path32" />
    <path
       style="fill:#ffffff;fill-opacity:1;stroke:#ffffff;stroke-width:0.5;stroke-miterlimit:1;stroke-dasharray:none;stroke-opacity:1;marker-end:url(#Triangle-1)"
       d="m 82.260739,56.734028 c -0.247444,0.317258 -2.887777,4.091421 -2.887777,4.091421"
       id="path32-75" />
    <path
       style="fill:#ffffff;fill-opacity:1;stroke:#ffffff;stroke-width:0.5;stroke-miterlimit:1;stroke-dasharray:none;stroke-opacity:1;marker-end:url(#Triangle-1-8)"
       d="m 73.572635,27.301687 c -0.396481,0.06844 -4.888601,1.086538 -4.888601,1.086538"
       id="path32-75-9" />
    <path
       style="fill:#ffffff;fill-opacity:1;stroke:#ffffff;stroke-width:0.5;stroke-miterlimit:1;stroke-dasharray:none;stroke-opacity:1;marker-end:url(#Triangle-4)"
       d="m 117.03706,78.208216 c 0.32706,0.770315 4.63676,9.420892 4.63676,9.420892"
       id="path32-7" />
    <text
       xml:space="preserve"
       style="font-size:3.175px;writing-mode:lr-tb;direction:ltr;fill:#ffffff;fill-opacity:1;stroke:#ffffff;stroke-width:0.499999;stroke-miterlimit:1;stroke-dasharray:none;stroke-opacity:1"
       x="48.549511"
       y="21.421654"
       id="text34"><tspan
         sodipodi:role="line"
         id="tspan34"
         style="stroke-width:0.5"></tspan></text>
    <text
       xml:space="preserve"
       transform="matrix(0.26458333,0,0,0.26458333,-48.059653,-41.631988)"
       id="text31-9-5"
       style="writing-mode:lr-tb;direction:ltr;white-space:pre;shape-inside:url(#rect31-1-1);display:inline;fill:#ffffff;fill-opacity:1;stroke:none;stroke-width:7.55906;stroke-dasharray:none;stroke-opacity:1"><tspan
         x="462.5"
         y="263.61719"
         id="tspan5">Confidential area for military R&amp;D</tspan></text>
    <text
       xml:space="preserve"
       transform="matrix(0.26458333,0,0,0.26458333,-49.77392,-54.367177)"
       id="text31-9-5-0"
       style="writing-mode:lr-tb;direction:ltr;white-space:pre;shape-inside:url(#rect31-1-1-2);display:inline;fill:#ffffff;fill-opacity:1;stroke:none;stroke-width:7.55906;stroke-dasharray:none;stroke-opacity:1"><tspan
         x="462.5"
         y="263.61719"
         id="tspan6">Elevator up to the seafloor</tspan></text>
    <path
       style="fill:#1a1a1a;fill-opacity:1;stroke:none;stroke-width:0.499999;stroke-miterlimit:1;stroke-dasharray:none;stroke-opacity:1"
       d="m 146.63075,134.37643 9.68183,16.83799 0.25725,19.85478 -1.49671,1.47332 -10.96807,-2.99342 -1.00561,-1.52009 0.0702,-13.40023 -6.50133,-12.04383 0.49111,-1.8475 7.17953,-6.43117 z"
       id="path34"
       sodipodi:nodetypes="ccccccccccc" />
    <path
       sodipodi:type="star"
       style="fill:#ff7272;fill-opacity:1;stroke:none;stroke-width:2;stroke-dasharray:none;stroke-opacity:1"
       id="path18-3"
       inkscape:flatsided="false"
       sodipodi:sides="6"
       sodipodi:cx="89.636284"
       sodipodi:cy="127.3678"
       sodipodi:r1="3.4528656"
       sodipodi:r2="2.0717194"
       sodipodi:arg1="0.33929261"
       sodipodi:arg2="0.86289139"
       inkscape:rounded="0"
       inkscape:randomized="0"
       d="m 92.892303,128.51698 -1.908897,0.42476 -0.714334,1.82044 -1.322298,-1.44077 -1.933721,0.29159 0.586599,-1.86553 -1.219387,-1.52886 1.908897,-0.42475 0.714334,-1.82045 1.322298,1.44078 1.933721,-0.2916 -0.586599,1.86554 z"
       inkscape:transform-center-x="0.0032229036"
       inkscape:transform-center-y="0.0070678679"
       transform="matrix(0.1202056,0,0,0.1202056,130.29838,128.86137)" />
    <circle
       style="fill:#808080;fill-opacity:1;stroke:none;stroke-width:0.277525;stroke-miterlimit:1;stroke-dasharray:none;stroke-opacity:1"
       id="path35"
       cx="65.273323"
       cy="14.575133"
       r="2.8617992" />
    <path
       style="fill:#ffffff;fill-opacity:1;stroke:#ffffff;stroke-width:0.5;stroke-miterlimit:1;stroke-dasharray:none;stroke-opacity:1;marker-end:url(#Triangle-1-8-6)"
       d="m 71.929219,14.17955 c -0.40201,0.01641 -4.988261,0.442991 -4.988261,0.442991"
       id="path32-75-9-4" />
    <path
       sodipodi:type="star"
       style="fill:#ff7272;fill-opacity:1;stroke:none;stroke-width:2;stroke-dasharray:none;stroke-opacity:1"
       id="path18-5-8"
       inkscape:flatsided="false"
       sodipodi:sides="6"
       sodipodi:cx="89.636284"
       sodipodi:cy="127.3678"
       sodipodi:r1="3.4528656"
       sodipodi:r2="2.0717194"
       sodipodi:arg1="0.33929261"
       sodipodi:arg2="0.86289139"
       inkscape:rounded="0"
       inkscape:randomized="0"
       d="m 92.892303,128.51698 -1.908897,0.42476 -0.714334,1.82044 -1.322298,-1.44077 -1.933721,0.29159 0.586599,-1.86553 -1.219387,-1.52886 1.908897,-0.42475 0.714334,-1.82045 1.322298,1.44078 1.933721,-0.2916 -0.586599,1.86554 z"
       inkscape:transform-center-x="0.0032229036"
       inkscape:transform-center-y="0.0070678679"
       transform="matrix(0.1202056,0,0,0.1202056,44.914525,16.583119)" />
  </g>
</svg>
